<svg viewBox="0 0 586.17 599.62" xmlns="http://www.w3.org/2000/svg"><path d="m227.64 5.27h92.68v29.16q0 183.12 0 366.22c-.11 118.59-78.11 197-196.2 197.4-40.79.13-81.58 0-123.89 0v-92.89c16.13 0 31.59-.71 47 .11 158.62 8.38 186.47-25.54 181.07-181.91-3.31-95.8-.61-191.81-.61-287.72z"/><path d="m355.89 302.92v-92.1c25.87 0 50.87.34 75.86-.08 35.56-.59 61.69-25 62.08-57.22.39-31.91-25.81-57.47-61.07-58.47-25.07-.7-50.17-.13-76.76-.13v-94.92c40.54 2.61 81.19.37 119.52 8.74 71 15.5 116.09 83.7 110.12 157-5.82 71.5-60.88 129.78-132.41 136.63-31.71 3.07-63.96.55-97.34.55z"/><path d="m2.16 5h89.5v99.19c0 81 19.68 102.49 101.07 108v89c-89.18 14.13-177.54-45.86-189.32-135-6.86-52.05-1.25-105.66-1.25-161.19z"/><path d="m580.94 599.62h-88c0-27.52.15-55 0-82.53-.41-58.7-30.08-88.36-88.58-88.69-15.53-.09-31.06 0-49.83 0v-89.08c109.26-22.4 206.7 30.62 225.1 127.09 8.05 42.5 1.31 87.84 1.31 133.21z"/></svg>